<svg xmlns="http://www.w3.org/2000/svg" viewBox="0 0 664.6 354.3"><defs><style>.cls-1,.cls-2,.cls-3{stroke:#000;stroke-miterlimit:10;}.cls-2{fill:#fff;}.cls-3{fill:none;stroke-width:4px;}</style></defs><g id="Calque_2" data-name="Calque 2"><g id="total"><g id="glasses"><path class="cls-1" d="M660.65,144.5c-3.95-1.6-9.43-3.74-16-6.1a455.75,455.75,0,0,0-61.34-17.11c-31.48-6.51-51.08-10.56-78.16-9.81-8.93.25-42.21,1.68-76.8,14.17-10.52,3.81-34.18,13.33-51.54,20.55-5.93,2.46-10.8,4.52-14.06,5.9.09,3.33,2.46,81,16.91,125.57,2.77,8.54,7.58,23.35,19.07,39.89a137.22,137.22,0,0,0,17,20,321.76,321.76,0,0,0,77,15c3.65.25,12.32.8,23.1.78,21.62,0,54-2.34,93.9-13.78a242.92,242.92,0,0,0,39.84-70.09C669.05,215.9,664.65,168.54,660.65,144.5Z"/><path class="cls-2" d="M638,169.46a361.74,361.74,0,0,0-248.48,3.79c-2.5,25.17-2.81,64.83,13.16,108.81a240.05,240.05,0,0,0,21,43.5c2.09,1,5.19,2.45,9,4,18.25,7.37,39.7,11.7,78.89,9.85a454.49,454.49,0,0,0,89.31-13.36A315.79,315.79,0,0,0,638,169.46Z"/><path class="cls-1" d="M4,145c4-1.6,9.44-3.74,16-6.1a454.22,454.22,0,0,1,61.34-17.11c31.48-6.51,51.07-10.57,78.16-9.81,8.92.25,42.21,1.67,76.79,14.17,10.53,3.8,34.18,13.33,51.54,20.54,5.93,2.47,10.8,4.53,14.06,5.91-.09,3.33-2.45,81-16.91,125.57-2.77,8.53-7.57,23.35-19.07,39.88a135.52,135.52,0,0,1-17,20,320.57,320.57,0,0,1-77,15c-3.65.26-12.32.81-23.1.79-21.62,0-54-2.34-93.9-13.79a242.85,242.85,0,0,1-39.84-70.08C-4.45,216.36,0,169,4,145Z"/><path class="cls-2" d="M26.58,169.92a361.71,361.71,0,0,1,248.47,3.79c2.51,25.16,2.81,64.83-13.16,108.81a239,239,0,0,1-21,43.49c-2.09,1-5.18,2.46-9,4-18.25,7.38-39.7,11.71-78.89,9.86A453.69,453.69,0,0,1,63.7,326.5,315.44,315.44,0,0,1,26.58,169.92Z"/><path class="cls-1" d="M388.27,165.58a89,89,0,0,0-111.94-.46v18.47a96.38,96.38,0,0,1,112.4,0Q388.51,174.59,388.27,165.58Z"/></g><g id="eyes"><path class="cls-1" d="M80.33,228.32c3.82-4.41,30.71-34.4,74-33.23,40.39,1.09,64.89,28.48,69,33.23,1.88,2.51,1.34,5.42,0,6.23-1,.6-2.66.16-4-1-1.5-1.63-3.52-3.77-6-6.23-1.59-1.59-3.63-3.62-6-5.72a77.79,77.79,0,0,0-10-7.78,71.47,71.47,0,0,0-18-8.31,83.09,83.09,0,0,0-17-3.11,95.17,95.17,0,0,0-29,1c-6.15,1.21-12.11,2.38-19,6.23-3.11,1.74-6.22,3.91-11,7.26-4.07,2.86-6.59,4.62-10,7.27-2.14,1.66-4,3.18-7,5.19-2.07,1.39-3.83,2.44-5,3.12-1.29.49-2.58.57-3,0S78.45,230,80.33,228.32Z"/><path class="cls-1" d="M584.56,228.77c-3.82-4.4-30.71-34.39-74-33.22-40.39,1.09-64.89,28.47-69,33.22-1.88,2.52-1.34,5.43,0,6.23,1,.61,2.66.17,4-1,1.5-1.63,3.52-3.77,6-6.23,1.59-1.59,3.63-3.62,6-5.73a78.8,78.8,0,0,1,10-7.77,71.1,71.1,0,0,1,18-8.31,83.09,83.09,0,0,1,17-3.11,95.42,95.42,0,0,1,29,1c6.15,1.21,12.11,2.39,19,6.23,3.11,1.74,6.22,3.92,11,7.27,4.07,2.86,6.59,4.62,10,7.27,2.14,1.66,4,3.17,7,5.19,2.07,1.39,3.83,2.44,5,3.12,1.29.49,2.58.57,3,0S586.44,230.41,584.56,228.77Z"/></g><ellipse id="pupil2" class="cls-1" cx="151.83" cy="244.06" rx="26.5" ry="25.5"/><ellipse id="pupil1" class="cls-1" cx="513.83" cy="244.06" rx="26.5" ry="25.5"/><path id="eyebrow2" class="cls-3" d="M28.5,108.71c2.05-3.14,5.61-8.59,10.06-15.46,7.51-11.59,11.5-17.86,12.72-17.5.27.09.52.54.21,2.37L38.31,115.48c4.35-6.73,10.45-16,17.92-27.11,18.2-26.94,22-30.92,23.14-30.53.45.16.68,1.09-.29,4.49q-6.14,11.91-12.2,24.39Q61,98.89,55.43,111a287.1,287.1,0,0,0,21.36-27.4c10.59-15.47,18.56-30.55,20.54-30,.52.16.45,1.37.28,2.5C82.72,82.7,69.08,107.82,70.54,108.39c2.35.91,42.37-61.89,44.5-61,.25.1,0,1-1.42,4.06C98,79.65,83.88,105.78,85,106.2c1.82.69,42.86-66.63,44.29-66.07.17.07-.21,1.14-2.15,4.88-15.54,27.28-31.51,55.76-30.59,56.11,1.43.55,41.91-66.29,44.83-65.2.24.09.29.66-.37,2.58q-6.51,12.6-13.55,25.55-7,12.8-14.34,25.62C122.75,78,130.7,67.56,137,59c13.63-18.55,24-34.61,25.77-33.95.56.2.08,2-.42,3.52q-6.44,13.47-13.76,27.55-7.42,14.25-15,27.55C143.41,71.8,150.87,62,155.76,55.29,167,40.07,177,25,177.88,25.36c.2.08-.09.88-.36,1.5L156.6,65.33c10.45-14.43,21-28.95,33.59-43L156,79.32q23.93-27.49,44.9-55.58-8.53,16.17-17.06,32.34c7.81-11.74,16.41-23.46,25.73-35Q198.35,42.41,184.42,64l26.46-33.79q-9,16.34-18,32.69c3.64-4.44,9.39-11.6,16.12-20.69,9.36-12.65,16.63-23.63,17.58-23.26.19.08.19.6-.69,2.7-16.27,26.26-23.55,40.82-23,40q12.5-17,26.13-33.85c-8.69,15.19-15.58,27.69-14.84,28,1.39.55,28.38-41.83,30.32-41.06.28.11.08,1.08-1.12,3.77C223.93,49,214.69,65,215,64.53a307,307,0,0,1,27.1-37.93A238.06,238.06,0,0,1,228,54a284.83,284.83,0,0,1,24.66-32.47q-14.85,25.55-31.87,51.15,16.49-23.11,35-46C239.59,52,224,76.85,224.93,77.26c1.47.65,42.81-59.26,44.46-58.52.17.07-.05.81-1.46,3.38L243.21,65.43,269.94,32.2c1.8-2.3,2.29-2.73,2.4-2.69,1,.47-34.36,52.79-33.21,53.32,1.31.6,48.84-66.37,50.2-65.75.15.07-.26,1-2.31,4.39q-17,29.61-33.94,59.23c1.17-1.78,23.64-36.14,34.29-44.62.89-.71,1.39-1,1.58-.88,1.44.8-15.11,23.11-33.26,46.85.18,1,.36,1.94.53,2.9"/><path id="eyebrow1" class="cls-3" d="M384.64,96c2.06-3.14,5.62-8.59,10.06-15.46,7.51-11.59,11.5-17.86,12.73-17.49.27.08.52.53.21,2.36q-6.6,18.69-13.19,37.36c4.36-6.73,10.46-16,17.93-27.11,18.2-26.94,22-30.92,23.13-30.53.46.16.68,1.09-.28,4.49Q429.08,61.55,423,74q-5.91,12.18-11.45,24.29a285,285,0,0,0,21.37-27.4c10.58-15.47,18.56-30.55,20.53-30,.53.15.46,1.36.29,2.5C438.87,70,425.23,95.12,426.69,95.69c2.34.92,42.36-61.89,44.5-61,.24.1,0,1-1.42,4.06C454.15,67,440,93.08,441.15,93.5c1.82.69,42.86-66.63,44.29-66.07.17.07-.21,1.14-2.15,4.88-15.54,27.28-31.51,55.76-30.59,56.12,1.43.54,41.91-66.3,44.83-65.21.24.09.29.66-.38,2.58q-6.5,12.6-13.55,25.55-7,12.8-14.33,25.62c9.63-11.7,17.58-22.11,23.85-30.65,13.64-18.56,24-34.62,25.78-34,.56.21.08,2-.43,3.53q-6.42,13.45-13.75,27.54-7.43,14.25-15,27.55C499.56,59.1,507,49.25,511.91,42.6c11.2-15.23,21.21-30.31,22.12-29.94.2.08-.1.88-.36,1.5L512.74,52.64c10.46-14.44,21-28.95,33.59-43l-34.17,57Q536.09,39.13,557.05,11,548.53,27.21,540,43.38c7.82-11.74,16.42-23.46,25.74-35.05-7.5,14.25-15.9,28.6-25.17,42.93Q553.81,34.37,567,17.47q-9,16.35-18,32.69c3.63-4.44,9.39-11.6,16.12-20.69,9.36-12.65,16.63-23.63,17.58-23.25.19.07.19.6-.69,2.69-16.27,26.26-23.55,40.82-23,40q12.5-17,26.13-33.85c-8.69,15.19-15.58,27.69-14.84,28,1.39.56,28.37-41.83,30.32-41.06.27.11.08,1.08-1.13,3.77-19.52,30.47-28.76,46.53-28.48,46.06a305.57,305.57,0,0,1,27.11-37.93,239.69,239.69,0,0,1-14.08,27.44A284.92,284.92,0,0,1,608.81,8.87Q594,34.43,576.94,60q16.48-23.11,34.95-46c-16.15,25.28-31.75,50.14-30.81,50.55,1.47.65,42.81-59.26,44.45-58.52.17.07,0,.81-1.45,3.38q-12.36,21.66-24.73,43.31,13.38-16.6,26.74-33.22c1.8-2.3,2.29-2.74,2.39-2.69,1,.47-34.35,52.78-33.2,53.31,1.3.6,48.84-66.37,50.19-65.75.16.07-.26,1-2.3,4.39q-17,29.61-33.94,59.23c1.16-1.78,23.64-36.14,34.29-44.61.89-.71,1.38-1,1.57-.89,1.45.8-15.1,23.12-33.25,46.85.17,1,.35,1.94.53,2.91"/></g></g></svg>